<?xml version="1.0" standalone="no"?>
<!DOCTYPE svg PUBLIC "-//W3C//DTD SVG 20010904//EN"
 "http://www.w3.org/TR/2001/REC-SVG-20010904/DTD/svg10.dtd">
<svg version="1.0" xmlns="http://www.w3.org/2000/svg"
 width="300.000000pt" height="300.000000pt" viewBox="0 0 300.000000 300.000000"
 preserveAspectRatio="xMidYMid meet">
<metadata>
Created by potrace 1.10, written by Peter Selinger 2001-2011
</metadata>
<g transform="translate(0.000000,300.000000) scale(0.100000,-0.100000)"
fill="#000000" stroke="none">
<path d="M1325 2587 c-27 -12 -95 -44 -150 -72 l-100 -50 -195 -5 c-189 -5
-197 -6 -253 -34 -111 -54 -138 -125 -98 -257 41 -138 37 -161 -36 -212 -112
-77 -143 -123 -143 -214 0 -42 46 -127 88 -164 114 -97 216 -208 241 -259 25
-54 26 -60 26 -260 0 -231 6 -254 73 -310 118 -97 253 -101 491 -13 232 85
303 104 375 104 39 0 143 -12 231 -27 189 -31 305 -30 370 4 94 48 142 139
124 236 -5 26 -32 100 -61 164 -52 116 -53 118 -52 217 0 76 7 126 28 210 54
210 46 367 -23 462 -47 66 -101 91 -256 120 -182 34 -211 53 -277 178 -58 112
-107 158 -195 185 -84 26 -146 25 -208 -3z m215 -38 c64 -21 108 -65 148 -148
33 -66 103 -146 145 -165 46 -21 95 -34 152 -42 154 -20 225 -59 269 -148 26
-53 29 -68 29 -165 0 -75 -6 -129 -21 -186 -33 -127 -42 -181 -42 -258 0 -86
15 -147 60 -242 68 -146 73 -182 37 -254 -58 -116 -191 -143 -447 -91 -66 14
-106 19 -195 26 -91 7 -161 -10 -360 -86 -140 -54 -201 -70 -295 -77 -77 -6
-148 7 -172 30 -7 7 -20 16 -29 19 -9 3 -30 28 -48 54 l-31 48 0 196 c1 174
-1 202 -19 251 -26 67 -70 122 -182 222 -109 97 -141 142 -147 207 -7 72 16
111 99 171 70 52 99 89 99 131 0 13 -11 69 -25 126 -14 57 -22 114 -19 128 9
33 61 83 114 107 39 17 65 20 206 19 88 0 180 5 205 11 24 6 96 38 159 70 156
80 193 85 310 46z"/>
<path d="M1180 2213 c-8 -3 -17 -9 -20 -12 -3 -3 -44 -26 -93 -51 -48 -24 -90
-53 -93 -62 -3 -10 -9 -18 -14 -18 -9 0 -41 -65 -59 -119 -15 -46 -14 -85 4
-127 l15 -36 52 7 c29 4 78 19 108 33 50 25 56 31 66 72 22 87 23 90 61 90 38
0 82 -28 75 -48 -2 -6 1 -12 6 -12 17 0 22 -28 10 -62 -6 -18 -14 -35 -18 -38
-7 -5 -18 -24 -75 -129 -27 -51 -26 -152 3 -208 31 -59 52 -68 101 -44 21 11
42 17 46 13 3 -4 5 -2 3 4 -2 5 14 25 35 43 20 18 37 39 37 47 0 8 5 14 10 14
13 0 13 37 0 45 -6 4 -8 16 -4 27 4 15 3 18 -6 13 -20 -12 -1 38 22 58 11 9
17 17 13 17 -4 0 17 23 46 52 30 28 58 51 62 49 5 -1 6 3 3 8 -3 5 4 30 15 56
16 36 19 57 14 84 -4 20 -7 50 -7 66 0 22 -1 25 -7 12 -6 -17 -8 -16 -19 8 -7
14 -12 33 -12 41 0 8 -4 13 -9 9 -6 -3 -13 1 -18 8 -4 8 -18 19 -31 26 -12 7
-20 16 -17 21 3 6 -1 7 -9 4 -9 -4 -18 1 -22 10 -3 9 -10 14 -14 11 -4 -3 -21
2 -36 10 -29 15 -191 20 -224 8z m246 -37 c68 -31 108 -66 134 -116 51 -101
35 -164 -71 -275 -42 -44 -78 -87 -79 -95 -5 -35 1 -70 15 -83 13 -14 11 -20
-19 -56 -72 -87 -133 -122 -159 -93 -31 36 -49 87 -50 141 0 60 9 83 73 182
49 77 59 121 35 165 -21 39 -70 67 -110 62 -23 -2 -34 -11 -48 -40 -10 -21
-19 -51 -19 -68 -1 -28 -8 -35 -57 -59 -31 -16 -75 -31 -99 -34 -52 -6 -62 7
-62 85 0 100 69 202 173 255 137 70 236 78 343 29z"/>
<path d="M1184 2156 c-137 -33 -245 -150 -247 -266 0 -27 1 -52 4 -54 2 -2 18
-1 34 2 22 5 31 14 34 32 5 41 49 117 78 138 16 10 44 24 63 31 94 30 214 -68
196 -161 -3 -19 -24 -64 -46 -99 -59 -93 -73 -128 -72 -181 1 -44 34 -128 50
-128 4 0 23 14 42 29 33 28 34 31 22 63 -27 75 -19 96 73 193 49 52 68 97 67
166 0 58 -32 149 -51 149 -6 0 -11 7 -11 14 0 19 -55 60 -99 75 -42 14 -71 13
-137 -3z m143 -18 c18 -7 33 -18 33 -25 0 -7 6 -10 14 -7 8 3 17 1 21 -5 3 -6
1 -11 -4 -11 -6 0 -11 -4 -11 -10 0 -5 6 -10 13 -10 27 0 57 -48 52 -82 -4
-29 -4 -30 4 -8 10 28 12 23 17 -35 3 -47 -14 -137 -26 -130 -4 3 -13 -8 -19
-24 -7 -15 -26 -38 -42 -50 -51 -38 -85 -141 -57 -169 9 -9 9 -15 1 -23 -6 -6
-9 -18 -5 -27 4 -12 1 -14 -14 -8 -10 4 -25 9 -33 10 -29 5 -40 78 -20 134 6
19 15 29 22 25 6 -4 8 0 4 10 -3 9 -2 17 2 19 18 7 73 126 78 168 6 56 -17
113 -56 138 -14 9 -28 19 -31 23 -18 23 -135 27 -158 6 -22 -20 -36 -22 -26
-4 4 7 3 9 -2 4 -5 -5 -9 -13 -9 -18 0 -5 -4 -9 -9 -8 -4 0 -14 -10 -20 -23
-7 -13 -18 -32 -24 -43 -7 -11 -16 -32 -22 -47 -5 -16 -16 -28 -24 -28 -8 0
-17 -8 -19 -17 -3 -10 -5 3 -6 30 0 26 3 47 7 47 5 0 14 16 22 35 8 19 17 35
22 35 4 0 8 7 8 15 0 8 7 15 16 15 8 0 12 5 9 10 -3 6 1 10 9 10 9 0 15 6 14
13 -2 6 5 11 14 11 10 -1 15 2 12 7 -5 9 29 26 91 47 42 14 113 14 152 0z"/>
<path d="M1393 2157 c16 -8 37 -27 48 -43 17 -27 19 -27 19 -7 0 24 -29 47
-70 57 -23 5 -22 5 3 -7z"/>
<path d="M1514 2019 c-1 -60 8 -62 20 -4 4 19 2 37 -6 48 -11 15 -13 9 -14
-44z"/>
<path d="M1544 1984 c-3 -10 -12 -36 -19 -57 -7 -20 -10 -35 -5 -32 13 8 44
94 37 102 -4 3 -9 -3 -13 -13z"/>
<path d="M1422 1425 c-33 -17 -39 -24 -26 -29 10 -4 30 4 50 19 34 26 54 26
54 1 0 -23 52 -107 70 -114 17 -7 17 -10 -3 -52 -27 -55 -110 -119 -136 -103
-9 5 -35 37 -58 71 -39 57 -41 64 -31 94 5 18 21 42 35 54 24 21 24 21 4 27
-12 3 -19 2 -16 -3 3 -4 -2 -13 -10 -20 -8 -7 -20 -30 -26 -51 -11 -35 -10
-42 15 -80 15 -22 25 -43 22 -46 -7 -7 56 -63 72 -63 7 0 26 7 41 15 16 8 32
11 36 7 5 -4 5 -2 2 4 -3 6 5 17 19 25 29 15 54 57 54 89 0 12 4 18 10 15 6
-3 7 1 4 9 -3 8 -14 18 -24 21 -10 3 -24 20 -31 38 -7 18 -15 34 -19 37 -3 3
-11 17 -17 33 -15 32 -33 33 -91 2z"/>
<path d="M1451 1386 c-7 -8 -27 -22 -46 -31 -19 -9 -35 -20 -35 -25 0 -5 12
-2 28 6 15 7 32 14 39 14 13 0 38 38 30 46 -2 3 -9 -2 -16 -10z"/>
<path d="M1052 1327 c-15 -19 -23 -95 -11 -102 13 -9 202 -8 228 0 28 9 50 93
28 107 -20 13 -235 8 -245 -5z m58 -19 c0 -6 -7 -8 -15 -4 -19 7 -19 -4 -2
-29 13 -17 14 -16 20 14 4 17 13 31 21 31 9 0 13 -8 10 -22 -3 -17 -1 -16 7 5
16 41 39 36 29 -8 -5 -20 -4 -33 1 -29 5 3 9 14 9 24 0 25 16 33 62 34 24 1
38 -4 38 -11 0 -7 -4 -13 -10 -13 -5 0 -10 -16 -10 -35 0 -23 -5 -35 -14 -35
-11 0 -13 10 -9 40 4 26 2 40 -6 40 -6 0 -11 -17 -11 -40 0 -22 -4 -40 -10
-40 -5 0 -10 6 -11 13 0 10 -2 10 -6 0 -2 -7 -16 -13 -30 -13 -20 0 -23 4 -19
23 l6 22 -11 -22 c-10 -18 -20 -22 -61 -21 -33 0 -48 4 -45 11 2 7 13 10 23 8
18 -3 18 -2 1 16 -21 25 -22 39 0 51 19 11 43 5 43 -10z"/>
<path d="M1632 1318 c-7 -13 -16 -37 -21 -55 -8 -26 -7 -31 5 -26 8 3 14 10
14 15 0 6 7 8 15 4 20 -7 19 4 -2 20 -17 12 -17 14 -2 29 12 12 38 17 98 19
45 2 84 -1 87 -6 3 -4 13 -4 23 1 20 11 47 -2 37 -17 -4 -6 -14 -8 -24 -5 -14
5 -14 3 2 -9 26 -21 13 -58 -21 -58 -15 0 -23 5 -20 13 2 6 10 11 17 9 6 -1
10 3 8 10 -7 21 -32 15 -43 -9 -7 -17 -18 -23 -43 -23 l-34 0 7 43 c4 30 3 38
-4 27 -6 -8 -11 -27 -11 -42 0 -18 -5 -28 -15 -28 -15 0 -15 4 -1 60 1 6 -10
10 -29 10 -12 0 -13 -4 -4 -19 17 -26 5 -49 -28 -54 -15 -2 31 -5 104 -6 l132
-1 10 38 c6 20 11 42 11 49 0 24 -40 33 -148 33 -102 0 -109 -1 -120 -22z"/>
<path d="M1403 1314 c-17 -7 -34 -17 -37 -22 -2 -4 9 -29 26 -55 26 -41 33
-45 50 -36 11 6 22 8 25 6 2 -3 -5 -8 -16 -12 -20 -6 -30 -25 -13 -25 10 0 82
49 82 57 0 12 -42 73 -51 73 -5 0 -9 7 -9 15 0 18 -15 18 -57 -1z m37 -14 c0
-5 -9 -10 -20 -10 -11 0 -20 -5 -20 -11 0 -6 6 -9 13 -6 54 20 59 20 52 -5 -5
-18 -4 -20 4 -8 12 16 12 15 16 -17 2 -15 -4 -22 -21 -26 -14 -2 -24 1 -24 7
0 6 -4 4 -9 -3 -8 -12 -12 -9 -23 15 -7 16 -17 32 -23 36 -6 4 -2 13 10 22 23
18 45 20 45 6z"/>
</g>
</svg>
